<?xml version="1.0" standalone="no"?>
<!DOCTYPE svg PUBLIC "-//W3C//DTD SVG 20010904//EN"
 "http://www.w3.org/TR/2001/REC-SVG-20010904/DTD/svg10.dtd">
<svg version="1.0" xmlns="http://www.w3.org/2000/svg"
 width="700.000000pt" height="700.000000pt" viewBox="0 0 700.000000 700.000000"
 preserveAspectRatio="xMidYMid meet">
<metadata>
Created by potrace 1.14, written by Peter Selinger 2001-2017
</metadata>
<g transform="translate(0.000000,700.000000) scale(0.100000,-0.100000)"
fill="#000000" stroke="none">
<path d="M3195 6994 c-16 -2 -73 -9 -125 -15 -232 -26 -538 -100 -780 -190
-523 -192 -1010 -521 -1383 -934 -481 -533 -781 -1184 -879 -1907 -29 -213
-31 -665 -5 -878 119 -948 543 -1711 1275 -2291 469 -372 1007 -622 1562 -723
365 -67 800 -72 1173 -16 962 146 1834 700 2376 1508 301 449 482 923 567
1482 22 142 31 647 14 807 -103 1025 -623 1923 -1458 2522 -483 345 -1033 555
-1647 626 -118 14 -595 20 -690 9z m745 -178 c159 -23 435 -79 448 -91 2 -2
-4 -29 -14 -61 -47 -163 34 -314 222 -411 106 -55 207 -90 474 -169 270 -79
358 -112 438 -164 64 -41 92 -80 92 -128 0 -66 -77 -92 -269 -92 -165 0 -280
13 -824 90 -799 112 -1209 144 -1587 121 -308 -19 -509 -54 -730 -127 -284
-94 -459 -201 -666 -408 -285 -286 -483 -568 -626 -889 -96 -215 -220 -632
-247 -830 -33 -234 2 -507 103 -812 114 -341 247 -608 627 -1256 264 -451 359
-647 389 -808 11 -61 4 -121 -14 -121 -32 0 -354 234 -501 364 -623 551 -986
1268 -1077 2126 -18 174 -15 557 6 730 67 557 249 1047 556 1500 557 819 1428
1339 2430 1449 129 14 644 6 770 -13z m795 -208 c568 -223 1082 -620 1456
-1123 193 -260 358 -571 464 -877 l36 -103 -16 -105 c-61 -389 -183 -882 -294
-1184 -164 -446 -342 -723 -636 -988 -207 -188 -406 -327 -810 -568 -572 -342
-678 -427 -770 -615 -71 -145 -90 -290 -61 -455 17 -91 56 -211 96 -289 l29
-59 -112 -21 c-209 -39 -372 -54 -612 -54 -536 -1 -971 96 -1437 321 -87 41
-158 77 -158 80 0 2 7 29 16 60 54 183 -42 425 -432 1092 -230 394 -316 549
-404 734 -221 463 -315 847 -280 1147 14 129 73 361 145 579 66 196 191 457
293 610 148 222 395 497 551 616 94 71 301 179 422 218 258 86 468 116 841
123 415 8 693 -16 1438 -121 622 -89 806 -105 958 -87 118 15 188 41 234 88
49 51 68 99 68 175 -1 121 -70 210 -225 290 -106 54 -167 75 -450 158 -364
107 -497 171 -543 260 -23 46 -24 78 -1 137 12 31 17 30 194 -39z m2082 -2668
c26 -191 25 -701 0 -875 -114 -764 -432 -1404 -961 -1930 -398 -396 -874 -678
-1414 -838 l-52 -16 -30 60 c-45 87 -87 222 -100 315 -19 144 14 283 94 392
81 110 182 182 616 442 510 306 745 475 966 695 306 306 480 609 654 1140 53
162 143 505 176 672 10 51 21 89 25 85 4 -4 16 -68 26 -142z"/>
<path d="M2200 5375 c-281 -79 -331 -370 -101 -588 121 -114 279 -177 442
-177 161 0 281 59 343 170 28 49 31 64 31 135 0 72 -4 89 -34 150 -63 129
-202 242 -361 295 -87 29 -244 36 -320 15z m211 -155 c89 -16 209 -82 268
-146 65 -71 91 -146 69 -202 -33 -87 -174 -125 -321 -87 -169 44 -311 180
-311 297 0 43 5 53 36 85 56 55 146 74 259 53z"/>
<path d="M4742 5239 c-109 -21 -206 -88 -250 -173 -21 -42 -26 -65 -26 -127
-1 -67 3 -84 36 -150 131 -265 502 -401 755 -278 276 134 206 498 -128 663
-134 66 -268 89 -387 65z m240 -180 c172 -50 314 -214 278 -323 -25 -77 -104
-111 -240 -104 -290 17 -514 309 -322 421 67 39 163 41 284 6z"/>
<path d="M1675 4466 c-74 -23 -125 -56 -202 -129 -170 -161 -247 -342 -260
-612 -7 -160 6 -295 58 -605 60 -353 108 -530 198 -723 181 -390 529 -703
1032 -927 490 -219 930 -228 1664 -35 314 82 625 217 810 350 307 220 533 527
692 941 118 307 149 524 104 740 -35 167 -121 322 -260 467 -70 72 -100 95
-170 130 l-84 42 -131 0 c-150 -1 -182 -10 -451 -118 -290 -116 -349 -130
-630 -147 -99 -6 -196 -13 -215 -15 -105 -15 -430 -23 -563 -15 -409 26 -540
79 -922 374 -160 123 -269 197 -344 235 -112 57 -238 75 -326 47z m218 -179
c57 -24 57 -12 -1 -173 -96 -263 -97 -438 -3 -517 92 -77 221 -51 429 86 54
35 124 85 156 111 33 25 62 45 65 44 4 -2 56 -28 117 -58 l112 -55 7 -70 c26
-265 102 -482 194 -552 37 -28 51 -33 100 -33 73 0 131 35 195 116 50 64 145
244 197 372 31 78 35 82 63 82 39 0 295 18 362 25 l51 6 33 -93 c51 -148 152
-346 204 -404 56 -63 90 -78 158 -72 46 5 57 11 90 48 65 73 97 188 125 456
l17 160 60 24 c40 16 61 19 64 12 12 -37 157 -237 212 -293 97 -98 169 -126
244 -95 94 39 136 157 136 384 0 67 4 112 10 112 20 0 150 -133 199 -205 101
-145 135 -254 134 -430 0 -177 -44 -350 -149 -590 -67 -152 -51 -143 -175
-102 -151 51 -256 70 -353 65 -285 -16 -318 -272 -80 -640 l43 -68 -32 -24
c-52 -40 -186 -116 -275 -157 l-82 -38 -17 27 c-60 98 -149 225 -190 273 -201
235 -392 238 -498 7 -44 -97 -85 -322 -85 -471 l0 -55 -77 -11 c-142 -21 -247
-31 -320 -31 l-72 0 -5 43 c-2 23 -11 112 -20 197 -34 334 -112 495 -245 508
-68 6 -126 -23 -199 -103 -61 -67 -156 -225 -217 -365 -21 -47 -41 -89 -45
-94 -10 -10 -201 89 -323 168 l-89 57 19 27 c203 303 258 450 219 586 -51 174
-267 221 -606 132 -74 -19 -144 -38 -156 -41 -18 -6 -24 1 -42 48 -35 93 -80
291 -121 537 -81 481 -77 674 21 880 53 110 177 240 254 264 58 18 119 13 187
-17z m347 -228 c80 -61 145 -115 145 -120 0 -17 -160 -129 -250 -175 -62 -31
-100 -45 -120 -42 l-30 3 1 70 c0 39 8 99 17 135 22 83 78 240 86 240 3 0 71
-50 151 -111z m2876 -146 c9 -47 -2 -257 -16 -305 -6 -21 -16 -38 -23 -38 -19
0 -114 107 -177 201 -33 50 -60 94 -60 99 0 17 189 76 252 79 12 1 19 -10 24
-36z m-726 -240 c-1 -91 -39 -308 -66 -371 l-15 -37 -25 30 c-43 51 -185 367
-172 380 2 2 55 8 118 15 63 6 116 13 119 15 2 3 13 5 23 5 14 0 18 -8 18 -37z
m-1270 -14 c58 -6 126 -14 152 -17 l46 -7 -52 -115 c-74 -165 -158 -290 -192
-290 -19 0 -60 76 -83 155 -22 75 -51 231 -51 273 0 23 3 24 38 18 20 -3 84
-11 142 -17z m-953 -1182 c20 -11 34 -27 37 -44 8 -37 -16 -128 -55 -206 -41
-80 -148 -247 -160 -247 -14 0 -154 145 -207 213 -25 34 -68 97 -95 141 l-48
80 38 14 c192 66 414 88 490 49z m2894 3 c89 -16 259 -72 259 -85 0 -41 -264
-356 -287 -342 -20 12 -105 166 -135 243 -37 96 -36 162 2 181 30 15 89 16
161 3z m-2048 -493 c28 -75 47 -162 62 -293 21 -176 20 -224 -2 -224 -57 1
-346 75 -382 99 -11 7 1 38 56 153 78 162 133 249 188 297 43 37 54 33 78 -32z
m1065 33 c18 -11 55 -44 83 -72 55 -57 205 -275 196 -284 -19 -19 -452 -132
-464 -121 -3 4 0 57 6 119 20 187 55 312 100 357 26 26 38 26 79 1z"/>
</g>
</svg>
